<svg width="21" height="21" viewBox="0 0 21 21" fill="none" xmlns="http://www.w3.org/2000/svg">
<path fill-rule="evenodd" clip-rule="evenodd" d="M15.2882 4.36466C16.3039 3.34897 15.5845 1.6123 14.1481 1.6123L3.05763 1.6123C2.61241 1.6123 2.25148 1.25137 2.25148 0.806149C2.25148 0.360926 2.61241 7.59455e-07 3.05763 7.39994e-07L19.9867 0C20.432 -1.94611e-08 20.7929 0.360925 20.7929 0.806148L20.7929 18.5414C20.7929 18.9866 20.432 19.3476 19.9867 19.3476C19.5415 19.3476 19.1806 18.9866 19.1806 18.5414L19.1806 6.64479C19.1806 5.20839 17.4439 4.48904 16.4282 5.50473L1.37618 20.5568C1.06136 20.8716 0.550936 20.8716 0.236116 20.5568C-0.0787051 20.242 -0.0787051 19.7315 0.236115 19.4167L15.2882 4.36466Z" fill="white"/>
</svg>
